<svg width="24" height="25" viewBox="0 0 24 25" fill="none" xmlns="http://www.w3.org/2000/svg">
<path d="M16.5461 13.728C17.2961 13.728 17.9561 13.318 18.2961 12.698L21.8761 6.20798C22.2461 5.54798 21.7661 4.72798 21.0061 4.72798H6.20609L5.26609 2.72798H1.99609V4.72798H3.99609L7.59609 12.318L6.24609 14.758C5.51609 16.098 6.47609 17.728 7.99609 17.728H19.9961V15.728H7.99609L9.09609 13.728H16.5461ZM7.15609 6.72798H19.3061L16.5461 11.728H9.52609L7.15609 6.72798ZM7.99609 18.728C6.89609 18.728 6.00609 19.628 6.00609 20.728C6.00609 21.828 6.89609 22.728 7.99609 22.728C9.09609 22.728 9.99609 21.828 9.99609 20.728C9.99609 19.628 9.09609 18.728 7.99609 18.728ZM17.9961 18.728C16.8961 18.728 16.0061 19.628 16.0061 20.728C16.0061 21.828 16.8961 22.728 17.9961 22.728C19.0961 22.728 19.9961 21.828 19.9961 20.728C19.9961 19.628 19.0961 18.728 17.9961 18.728Z" fill="#212121"/>
</svg>
