<svg width="16" height="16" viewBox="0 0 16 16" fill="none" xmlns="http://www.w3.org/2000/svg">
<path d="M10.5033 9.50335H9.97667L9.79 9.32335C10.4433 8.56335 10.8367 7.57668 10.8367 6.50335C10.8367 4.11001 8.89667 2.17001 6.50333 2.17001C4.11 2.17001 2.17 4.11001 2.17 6.50335C2.17 8.89668 4.11 10.8367 6.50333 10.8367C7.57666 10.8367 8.56333 10.4433 9.32333 9.79001L9.50333 9.97668V10.5033L12.8367 13.83L13.83 12.8367L10.5033 9.50335ZM6.50333 9.50335C4.84333 9.50335 3.50333 8.16335 3.50333 6.50335C3.50333 4.84335 4.84333 3.50335 6.50333 3.50335C8.16333 3.50335 9.50333 4.84335 9.50333 6.50335C9.50333 8.16335 8.16333 9.50335 6.50333 9.50335Z" fill="#B42926"/>
</svg>
