<svg width="85" height="32" viewBox="0 0 85 32" fill="none" xmlns="http://www.w3.org/2000/svg">
<g clip-path="url(#clip0_1_8)">
<path fill-rule="evenodd" clip-rule="evenodd" d="M67.3448 2.76972C65.8516 2.76972 64.5455 3.56526 63.8393 4.75645L63.7585 4.9011C63.7415 4.93088 63.7287 4.9564 63.716 4.98618L58.798 13.6861C57.6749 15.9239 55.3436 17.4597 52.6507 17.4597C49.9577 17.4597 47.4094 15.775 46.3544 13.3713L42.5723 19.8208V19.9059L39.773 20.6503V13.014L35.5996 20.2292C34.4042 22.2244 32.209 23.5603 29.6947 23.5603C27.8569 23.5603 26.1849 22.8455 24.9555 21.6799L23.3048 24.4877L23.292 24.509C21.0671 28.0187 17.1149 30.3543 12.6139 30.3543C5.64114 30.35 0 24.7642 0 17.8766C0 10.9889 5.64114 5.4031 12.6011 5.4031C15.8088 5.4031 18.7357 6.59004 20.9607 8.54274L17.485 9.46591C16.047 8.64484 14.3794 8.17687 12.6011 8.17687C7.18969 8.17687 2.7993 12.5205 2.7993 17.8766C2.7993 23.2327 7.18544 27.5763 12.6011 27.5763C16.0896 27.5763 19.1569 25.7725 20.8926 23.0455L23.2282 19.0763C22.9645 18.353 22.8198 17.5788 22.8198 16.7662C22.8198 13.014 25.8914 9.97642 29.6819 9.97642C32.4812 9.97642 34.8891 11.6356 35.957 14.0137L39.1179 8.5555L42.5681 7.64084V14.2987L46.733 7.19839L46.7457 7.2069C47.9412 5.21166 50.1364 3.87582 52.6507 3.87582C55.4202 3.87582 57.8111 5.50095 58.8916 7.84504L61.3081 3.56951C61.3421 3.5057 61.3761 3.44614 61.4144 3.38233L61.4399 3.33979C62.6311 1.34029 64.8306 -0.00405884 67.3491 -0.00405884C71.1396 -0.00405884 74.2112 3.03773 74.2112 6.78573C74.2112 8.49594 73.5731 10.0573 72.518 11.2527C74.5388 11.9589 76.2788 13.2565 77.521 14.9411L84.281 13.1416L85.0085 15.8175L78.8824 17.4511C79.3036 18.5785 79.5333 19.7952 79.5333 21.063C79.5333 26.802 74.8323 31.4562 69.0338 31.4562C63.2352 31.4562 58.5343 26.802 58.5343 21.063V19.9994L74.543 15.7367C73.1434 14.32 71.1949 13.4394 69.0338 13.4394C68.8466 13.4394 68.3361 13.4734 67.7745 13.5968V10.7805C68 10.7464 68.2127 10.7209 68.4042 10.7039L68.3956 10.6784C70.1356 10.2232 71.4119 8.65335 71.4119 6.79424C71.4119 4.57352 69.5953 2.77397 67.3534 2.77397L67.3448 2.76972ZM56.1817 12.6268L56.3051 12.4099C56.5603 11.8823 56.7049 11.2952 56.7049 10.6699C56.7049 8.44914 54.8884 6.6496 52.6464 6.6496C50.4044 6.6496 48.5878 8.44914 48.5878 10.6699C48.5878 12.8906 50.4044 14.6901 52.6464 14.6901C54.1694 14.6901 55.4967 13.8606 56.1902 12.6311H56.1817V12.6268ZM25.6234 16.7662C25.6234 18.9869 27.4399 20.7865 29.6819 20.7865C31.9239 20.7865 33.7405 18.9869 33.7405 16.7662C33.7405 14.5455 31.9239 12.7459 29.6819 12.7459C27.4399 12.7459 25.6234 14.5455 25.6234 16.7662ZM76.1554 18.1744L61.3974 22.1053C61.9122 25.8193 65.1326 28.6824 69.0253 28.6824C73.2795 28.6824 76.7255 25.2705 76.7255 21.0588C76.7255 20.0377 76.5213 19.0635 76.1554 18.1701V18.1744Z" fill="white"/>
</g>
<defs>
<clipPath id="clip0_1_8">
<rect width="85" height="31.456" fill="white"/>
</clipPath>
</defs>
</svg>
